<?xml version="1.0" encoding="UTF-8" standalone="no"?>
<!-- Created with Inkscape (http://www.inkscape.org/) -->

<svg
   xmlns:dc="http://purl.org/dc/elements/1.1/"
   xmlns:cc="http://creativecommons.org/ns#"
   xmlns:rdf="http://www.w3.org/1999/02/22-rdf-syntax-ns#"
   xmlns:svg="http://www.w3.org/2000/svg"
   xmlns="http://www.w3.org/2000/svg"
   xmlns:sodipodi="http://sodipodi.sourceforge.net/DTD/sodipodi-0.dtd"
   xmlns:inkscape="http://www.inkscape.org/namespaces/inkscape"
   width="212.65907mm"
   height="212.65907mm"
   viewBox="0 0 212.65906 212.65907"
   version="1.1"
   id="svg8"
   inkscape:version="0.92.5 (2060ec1f9f, 2020-04-08)"
   sodipodi:docname="idea.svg">
  <defs
     id="defs2" />
  <sodipodi:namedview
     id="base"
     pagecolor="#ffffff"
     bordercolor="#666666"
     borderopacity="1.0"
     inkscape:pageopacity="0.0"
     inkscape:pageshadow="2"
     inkscape:zoom="0.49497474"
     inkscape:cx="560.1536"
     inkscape:cy="360.80366"
     inkscape:document-units="mm"
     inkscape:current-layer="g4690"
     showgrid="false"
     showguides="true"
     inkscape:guide-bbox="true"
     inkscape:window-width="1366"
     inkscape:window-height="731"
     inkscape:window-x="0"
     inkscape:window-y="0"
     inkscape:window-maximized="1"
     fit-margin-top="0"
     fit-margin-left="0"
     fit-margin-right="0"
     fit-margin-bottom="0">
    <sodipodi:guide
       position="221.76312,89.832449"
       orientation="0,1"
       id="guide3726"
       inkscape:locked="false" />
    <sodipodi:guide
       position="208.13237,183.37678"
       orientation="0,1"
       id="guide3728"
       inkscape:locked="false" />
    <sodipodi:guide
       position="221.22858,-1.5737337"
       orientation="0,1"
       id="guide3732"
       inkscape:locked="false" />
    <sodipodi:guide
       position="315.04017,-16.808094"
       orientation="1,0"
       id="guide3734"
       inkscape:locked="false" />
    <sodipodi:guide
       position="299.80502,160.35911"
       orientation="0,1"
       id="guide3736"
       inkscape:locked="false" />
  </sodipodi:namedview>
  <metadata
     id="metadata5">
    <rdf:RDF>
      <cc:Work
         rdf:about="">
        <dc:format>image/svg+xml</dc:format>
        <dc:type
           rdf:resource="http://purl.org/dc/dcmitype/StillImage" />
        <dc:title></dc:title>
      </cc:Work>
    </rdf:RDF>
  </metadata>
  <g
     inkscape:label="Camada 1"
     inkscape:groupmode="layer"
     id="layer1"
     transform="translate(209.46873,17.993428)">
    <g
       id="g3755"
       style="fill:#ffcc00"
       transform="translate(-459.70359,-52.287602)">
      <g
         id="g4690"
         transform="translate(207.13095,0.20045211)">
        <g
           id="g4802"
           transform="translate(43.861992)">
          <g
             id="g4564"
             style="stroke:#000000;stroke-opacity:0">
            <path
               sodipodi:nodetypes="cccccccc"
               inkscape:connector-curvature="0"
               d="m 105.61306,34.226216 c 31.48447,0.08032 65.15592,21.998629 62.09993,70.406524 -5.57166,33.98502 -29.38859,31.19782 -27.11562,79.4087 -0.45979,6.89569 -7.35571,11.9975 -7.35571,11.9975 H 77.901252 c 0,0 -6.895926,-5.10181 -7.355713,-11.9975 C 72.818513,135.83056 49.001579,138.61777 43.429918,104.63275 40.373933,56.22485 74.04538,34.306541 105.52985,34.226222"
               style="fill:#ffcc00;stroke:#000000;stroke-width:0.26499999;stroke-linecap:butt;stroke-linejoin:miter;stroke-miterlimit:4;stroke-dasharray:none;stroke-opacity:0"
               id="path3724-3" />
          </g>
          <path
             sodipodi:nodetypes="cccccccccc"
             inkscape:connector-curvature="0"
             d="m 133.24166,196.03894 c -0.26621,4.19955 -0.39268,6.95108 -3.08142,12.36122 v 23.1188 c -0.49126,6.62926 -4.92705,5.8625 -8.01808,7.61718 -6.66164,6.52447 -6.4806,7.14047 -16.57071,7.48356 -23.619062,-6.29348 -23.619045,-6.29348 1e-5,-1e-5 -10.090107,-0.34309 -9.909074,-0.95909 -16.570708,-7.48355 -3.091032,-1.75468 -7.526824,-0.98793 -8.018086,-7.61718 v -23.11881 c -2.688739,-5.41013 -2.815204,-8.16167 -3.081415,-12.36121"
             style="fill:#999999;stroke:#000000;stroke-width:0.26499999;stroke-linecap:butt;stroke-linejoin:miter;stroke-miterlimit:4;stroke-dasharray:none;stroke-opacity:0"
             id="path4566-6" />
          <path
             style="fill:#cccccc;stroke:#000000;stroke-width:0.26458332px;stroke-linecap:butt;stroke-linejoin:miter;stroke-opacity:0"
             d="m 130.16026,214.35164 -49.311228,3.11275 c -2.936082,2.88973 -3.050786,3.37889 -0.133635,5.50195 l 49.405713,-3.63107 c 3.54071,-2.65862 1.63034,-3.54689 0.0392,-4.98363 z"
             id="path4585"
             inkscape:connector-curvature="0"
             sodipodi:nodetypes="ccccc" />
          <path
             style="fill:#cccccc;stroke:#000000;stroke-width:0.26458332px;stroke-linecap:butt;stroke-linejoin:miter;stroke-opacity:0"
             d="m 130.2939,205.2874 -49.311234,3.11275 c -2.936082,2.88973 -3.050786,3.37889 -0.133635,5.50195 l 49.405719,-3.63107 c 3.54071,-2.65862 1.63034,-3.54689 0.0392,-4.98363 z"
             id="path4585-7"
             inkscape:connector-curvature="0"
             sodipodi:nodetypes="ccccc" />
          <path
             style="fill:#cccccc;stroke:#000000;stroke-width:0.26458332px;stroke-linecap:butt;stroke-linejoin:miter;stroke-opacity:0"
             d="m 130.42753,222.90426 -49.311229,3.11275 c -2.936082,2.88973 -3.050786,3.37889 -0.133635,5.50195 l 49.405714,-3.63107 c 3.54071,-2.65862 1.63034,-3.54689 0.0392,-4.98363 z"
             id="path4585-3"
             inkscape:connector-curvature="0"
             sodipodi:nodetypes="ccccc" />
          <path
             style="fill:#ffffff;stroke:#000000;stroke-width:0.16668281px;stroke-linecap:butt;stroke-linejoin:miter;stroke-opacity:0"
             d="m 73.885831,52.16575 c -4.120895,1.143599 -8.656708,3.915563 -13.896461,11.210257 -9.646566,22.401876 8.249555,15.890721 14.564332,5.184327 4.645714,-4.693906 7.664746,-14.769676 -0.667871,-16.394584 z"
             id="path4614"
             inkscape:connector-curvature="0"
             sodipodi:nodetypes="cccc" />
        </g>
      </g>
    </g>
  </g>
</svg>
