<?xml version="1.0" encoding="UTF-8" standalone="no"?>
<!-- Created with Inkscape (http://www.inkscape.org/) -->

<svg
   xmlns:dc="http://purl.org/dc/elements/1.1/"
   xmlns:cc="http://creativecommons.org/ns#"
   xmlns:rdf="http://www.w3.org/1999/02/22-rdf-syntax-ns#"
   xmlns:svg="http://www.w3.org/2000/svg"
   xmlns="http://www.w3.org/2000/svg"
   xmlns:sodipodi="http://sodipodi.sourceforge.net/DTD/sodipodi-0.dtd"
   xmlns:inkscape="http://www.inkscape.org/namespaces/inkscape"
   width="76.328629mm"
   height="16.959229mm"
   viewBox="0 0 76.328629 16.959228"
   version="1.1"
   id="svg8"
   inkscape:version="0.92.5 (2060ec1f9f, 2020-04-08)"
   sodipodi:docname="logo-dark.svg">
  <defs
     id="defs2" />
  <sodipodi:namedview
     id="base"
     pagecolor="#ffffff"
     bordercolor="#666666"
     borderopacity="1.0"
     inkscape:pageopacity="0.0"
     inkscape:pageshadow="2"
     inkscape:zoom="1.979899"
     inkscape:cx="50.661065"
     inkscape:cy="70.3958"
     inkscape:document-units="mm"
     inkscape:current-layer="layer1"
     showgrid="false"
     fit-margin-top="1"
     fit-margin-left="1"
     fit-margin-right="1"
     fit-margin-bottom="1"
     inkscape:window-width="1366"
     inkscape:window-height="731"
     inkscape:window-x="0"
     inkscape:window-y="0"
     inkscape:window-maximized="1" />
  <metadata
     id="metadata5">
    <rdf:RDF>
      <cc:Work
         rdf:about="">
        <dc:format>image/svg+xml</dc:format>
        <dc:type
           rdf:resource="http://purl.org/dc/dcmitype/StillImage" />
        <dc:title />
      </cc:Work>
    </rdf:RDF>
  </metadata>
  <g
     inkscape:label="Camada 1"
     inkscape:groupmode="layer"
     id="layer1"
     transform="translate(-50.361007,-101.74382)">
    <text
       xml:space="preserve"
       style="font-style:normal;font-variant:normal;font-weight:normal;font-stretch:normal;font-size:10.58333302px;line-height:1.25;font-family:'Roboto Slab';-inkscape-font-specification:'Roboto Slab, Normal';font-variant-ligatures:normal;font-variant-caps:normal;font-variant-numeric:normal;font-feature-settings:normal;text-align:start;letter-spacing:0px;word-spacing:0px;writing-mode:lr-tb;text-anchor:start;fill:#ffffff;fill-opacity:1;stroke:none;stroke-width:0.26458332;"
       x="60.636013"
       y="114.05952"
       id="text12"><tspan
         sodipodi:role="line"
         id="tspan10"
         x="60.636013"
         y="114.05952"
         style="font-style:normal;font-variant:normal;font-weight:500;font-stretch:normal;font-size:10.58333302px;font-family:'Roboto Slab';-inkscape-font-specification:'Roboto Slab, Medium';font-variant-ligatures:normal;font-variant-caps:normal;font-variant-numeric:normal;font-feature-settings:normal;text-align:start;writing-mode:lr-tb;text-anchor:start;fill:#ffffff;stroke-width:0.26458332;">StartUpIdeas</tspan></text>
    <g
       transform="matrix(0.05317622,0,0,0.05317622,63.435207,105.07967)"
       id="layer1-2"
       inkscape:label="Camada 1">
      <g
         transform="translate(-459.70359,-52.287602)"
         style="fill:#ffcc00"
         id="g3755">
        <g
           transform="translate(207.13095,0.20045211)"
           id="g4690">
          <g
             id="g4802">
            <g
               style="stroke:#000000;stroke-opacity:0"
               id="g4564">
              <path
                 id="path3724-3"
                 style="fill:#ffcc00;stroke:#000000;stroke-width:0.26499999;stroke-linecap:butt;stroke-linejoin:miter;stroke-miterlimit:4;stroke-dasharray:none;stroke-opacity:0"
                 d="m 105.61306,34.226216 c 31.48447,0.08032 65.15592,21.998629 62.09993,70.406524 -5.57166,33.98502 -29.38859,31.19782 -27.11562,79.4087 -0.45979,6.89569 -7.35571,11.9975 -7.35571,11.9975 H 77.901252 c 0,0 -6.895926,-5.10181 -7.355713,-11.9975 C 72.818513,135.83056 49.001579,138.61777 43.429918,104.63275 40.373933,56.22485 74.04538,34.306541 105.52985,34.226222"
                 inkscape:connector-curvature="0"
                 sodipodi:nodetypes="cccccccc" />
            </g>
            <path
               id="path4566-6"
               style="fill:#999999;stroke:#000000;stroke-width:0.26499999;stroke-linecap:butt;stroke-linejoin:miter;stroke-miterlimit:4;stroke-dasharray:none;stroke-opacity:0"
               d="m 133.24166,196.03894 c -0.26621,4.19955 -0.39268,6.95108 -3.08142,12.36122 v 23.1188 c -0.49126,6.62926 -4.92705,5.8625 -8.01808,7.61718 -6.66164,6.52447 -6.4806,7.14047 -16.57071,7.48356 -23.619062,-6.29348 -23.619045,-6.29348 1e-5,-1e-5 -10.090107,-0.34309 -9.909074,-0.95909 -16.570708,-7.48355 -3.091032,-1.75468 -7.526824,-0.98793 -8.018086,-7.61718 v -23.11881 c -2.688739,-5.41013 -2.815204,-8.16167 -3.081415,-12.36121"
               inkscape:connector-curvature="0"
               sodipodi:nodetypes="cccccccccc" />
            <path
               sodipodi:nodetypes="ccccc"
               inkscape:connector-curvature="0"
               id="path4585"
               d="m 130.16026,214.35164 -49.311228,3.11275 c -2.936082,2.88973 -3.050786,3.37889 -0.133635,5.50195 l 49.405713,-3.63107 c 3.54071,-2.65862 1.63034,-3.54689 0.0392,-4.98363 z"
               style="fill:#cccccc;stroke:#000000;stroke-width:0.26458332px;stroke-linecap:butt;stroke-linejoin:miter;stroke-opacity:0" />
            <path
               sodipodi:nodetypes="ccccc"
               inkscape:connector-curvature="0"
               id="path4585-7"
               d="m 130.2939,205.2874 -49.311234,3.11275 c -2.936082,2.88973 -3.050786,3.37889 -0.133635,5.50195 l 49.405719,-3.63107 c 3.54071,-2.65862 1.63034,-3.54689 0.0392,-4.98363 z"
               style="fill:#cccccc;stroke:#000000;stroke-width:0.26458332px;stroke-linecap:butt;stroke-linejoin:miter;stroke-opacity:0" />
            <path
               sodipodi:nodetypes="ccccc"
               inkscape:connector-curvature="0"
               id="path4585-3"
               d="m 130.42753,222.90426 -49.311229,3.11275 c -2.936082,2.88973 -3.050786,3.37889 -0.133635,5.50195 l 49.405714,-3.63107 c 3.54071,-2.65862 1.63034,-3.54689 0.0392,-4.98363 z"
               style="fill:#cccccc;stroke:#000000;stroke-width:0.26458332px;stroke-linecap:butt;stroke-linejoin:miter;stroke-opacity:0" />
            <path
               sodipodi:nodetypes="cccc"
               inkscape:connector-curvature="0"
               id="path4614"
               d="m 73.885831,52.16575 c -4.120895,1.143599 -8.656708,3.915563 -13.896461,11.210257 -9.646566,22.401876 8.249555,15.890721 14.564332,5.184327 4.645714,-4.693906 7.664746,-14.769676 -0.667871,-16.394584 z"
               style="fill:#ffffff;stroke:#000000;stroke-width:0.16668281px;stroke-linecap:butt;stroke-linejoin:miter;stroke-opacity:0" />
          </g>
        </g>
      </g>
    </g>
  </g>
</svg>
