<?xml version="1.0" standalone="no"?>
<!DOCTYPE svg PUBLIC "-//W3C//DTD SVG 20010904//EN"
 "http://www.w3.org/TR/2001/REC-SVG-20010904/DTD/svg10.dtd">
<svg version="1.0" xmlns="http://www.w3.org/2000/svg"
 width="700.000000pt" height="700.000000pt" viewBox="0 0 700.000000 700.000000"
 preserveAspectRatio="xMidYMid meet">
<metadata>
Created by potrace 1.14, written by Peter Selinger 2001-2017
</metadata>
<g transform="translate(0.000000,700.000000) scale(0.100000,-0.100000)"
fill="#000000" stroke="none">
<path d="M3397 6994 c-1 -1 -40 -5 -87 -8 -220 -16 -516 -91 -695 -176 -11 -5
-31 -14 -45 -20 -97 -39 -317 -180 -420 -268 -362 -309 -580 -703 -665 -1197
-24 -146 -26 -169 -31 -406 -5 -213 -3 -232 20 -341 23 -104 56 -217 100 -336
25 -66 92 -196 154 -296 52 -85 209 -316 232 -343 52 -61 203 -335 245 -443
43 -111 87 -265 101 -354 3 -21 8 -48 10 -60 21 -100 31 -250 33 -490 2 -248
6 -278 52 -368 24 -46 97 -137 148 -183 36 -33 39 -40 45 -107 9 -97 32 -189
67 -266 l28 -63 -38 -50 c-44 -59 -44 -75 5 -114 31 -25 34 -32 34 -82 0 -51
-3 -59 -40 -99 -22 -24 -40 -51 -40 -60 0 -9 18 -33 40 -53 36 -33 40 -41 40
-86 0 -41 -5 -54 -29 -80 -47 -48 -49 -76 -8 -112 23 -20 37 -43 41 -68 19
-97 67 -145 186 -184 56 -19 78 -34 159 -112 51 -49 115 -101 141 -114 62 -31
154 -46 304 -47 272 -3 341 22 506 187 54 54 76 69 130 86 141 46 179 96 188
243 5 86 7 92 39 125 42 44 42 71 -2 110 -32 28 -35 35 -35 86 0 50 4 60 34
91 39 40 38 58 -5 104 -26 26 -29 37 -29 91 0 56 3 65 35 100 40 45 41 50 18
89 -15 25 -15 31 -1 66 19 48 35 128 43 214 6 61 9 68 51 109 57 55 120 134
144 180 46 91 50 122 51 369 1 214 7 320 25 437 3 22 8 56 10 75 3 19 17 80
30 135 73 295 165 478 433 854 86 120 184 284 233 389 45 95 111 274 122 332
2 14 14 63 25 110 18 75 20 111 17 315 -2 127 -6 250 -10 275 -3 25 -8 63 -11
85 -31 220 -109 475 -201 655 -43 84 -82 155 -96 175 -144 198 -259 330 -373
425 -112 95 -287 204 -428 269 -164 76 -265 111 -417 146 -119 27 -130 29
-258 45 -79 10 -348 20 -355 14z"/>
</g>
</svg>
